<svg width="19" height="18" viewBox="0 0 19 18" fill="none" xmlns="http://www.w3.org/2000/svg">
<path d="M17.5991 3.07403C18.3019 2.37123 18.3019 1.22989 17.5991 0.527097C16.8963 -0.175699 15.755 -0.175699 15.0522 0.527097L9.13183 6.45307L3.20586 0.532719C2.50307 -0.170077 1.36173 -0.170077 0.658933 0.532719C-0.0438629 1.23551 -0.0438629 2.37685 0.658933 3.07965L6.5849 9L0.664555 14.926C-0.0382404 15.6288 -0.0382404 16.7701 0.664555 17.4729C1.36735 18.1757 2.50869 18.1757 3.21149 17.4729L9.13183 11.5469L15.0578 17.4673C15.7606 18.1701 16.9019 18.1701 17.6047 17.4673C18.3075 16.7645 18.3075 15.6231 17.6047 14.9203L11.6788 9L17.5991 3.07403Z" fill="#FBF9D3"/>
</svg>
